<svg xmlns="http://www.w3.org/2000/svg" width="120" height="120" viewBox="0 0 120 120">
  <g id="グループ_91" data-name="グループ 91" transform="translate(8899 -2590)">
    <path id="パス_43" data-name="パス 43" d="M0,0H120V120H0Z" transform="translate(-8899 2590)" fill="rgba(255,255,255,0)"/>
    <g id="グループ_85" data-name="グループ 85" transform="translate(96 -143)">
      <g id="CSSアイコン" transform="translate(-8928.637 2772.777)">
        <path id="パス_12" data-name="パス 12" d="M90.285,0h-23.6l-1.2,1.2L48.905,17.781l-1.2,1.2V54.862A11.072,11.072,0,0,0,58.765,65.922h31.52a11.071,11.071,0,0,0,11.057-11.059v-43.8A11.071,11.071,0,0,0,90.285,0Zm6.963,54.862a6.964,6.964,0,0,1-6.963,6.964H58.765A6.964,6.964,0,0,1,51.8,54.862V20.677H62.579a5.8,5.8,0,0,0,5.8-5.8V4.095h21.9a6.964,6.964,0,0,1,6.963,6.964Z" transform="translate(-47.706)" fill="#4b4b4b"/>
        <path id="パス_13" data-name="パス 13" d="M138.573,253.565a1.789,1.789,0,0,1,1.609.874,1.314,1.314,0,0,0,1.136.665,1.136,1.136,0,0,0,1.172-1.154,1.513,1.513,0,0,0-.228-.77,4.551,4.551,0,0,0-7.94,1.032,15.807,15.807,0,0,0,0,6.435,4.551,4.551,0,0,0,7.94,1.032,1.513,1.513,0,0,0,.228-.769,1.136,1.136,0,0,0-1.172-1.154,1.315,1.315,0,0,0-1.136.664,1.788,1.788,0,0,1-1.609.875,1.736,1.736,0,0,1-1.784-1.312,17.039,17.039,0,0,1,0-5.106A1.736,1.736,0,0,1,138.573,253.565Z" transform="translate(-122.882 -218.937)" fill="#4b4b4b"/>
        <path id="パス_14" data-name="パス 14" d="M219.415,256.221l-.629-.088c-1.381-.192-1.854-.646-1.854-1.312,0-.752.559-1.277,1.609-1.277a4.84,4.84,0,0,1,2.046.49,1.714,1.714,0,0,0,.752.192,1.1,1.1,0,0,0,1.12-1.119,1.167,1.167,0,0,0-.613-1.032,6.887,6.887,0,0,0-3.323-.787c-2.571,0-4.214,1.451-4.214,3.637,0,2.1,1.329,3.236,3.76,3.568l.631.087c1.415.192,1.836.629,1.836,1.329,0,.823-.683,1.4-1.942,1.4a4.92,4.92,0,0,1-2.553-.77,1.507,1.507,0,0,0-.752-.21,1.127,1.127,0,0,0-1.154,1.137,1.29,1.29,0,0,0,.611,1.084,7.1,7.1,0,0,0,3.743,1.014c3.094,0,4.669-1.591,4.669-3.742S221.881,256.571,219.415,256.221Z" transform="translate(-192.706 -218.935)" fill="#4b4b4b"/>
        <path id="パス_15" data-name="パス 15" d="M302.952,256.221l-.629-.088c-1.383-.192-1.854-.646-1.854-1.312,0-.752.559-1.277,1.607-1.277a4.827,4.827,0,0,1,2.046.49,1.727,1.727,0,0,0,.753.192,1.094,1.094,0,0,0,1.118-1.119,1.169,1.169,0,0,0-.611-1.032,6.893,6.893,0,0,0-3.323-.787c-2.571,0-4.214,1.451-4.214,3.637,0,2.1,1.329,3.236,3.76,3.568l.629.087c1.417.192,1.836.629,1.836,1.329,0,.823-.681,1.4-1.94,1.4a4.911,4.911,0,0,1-2.553-.77,1.508,1.508,0,0,0-.753-.21,1.128,1.128,0,0,0-1.154,1.137,1.288,1.288,0,0,0,.613,1.084,7.1,7.1,0,0,0,3.742,1.014c3.1,0,4.669-1.591,4.669-3.742S305.417,256.571,302.952,256.221Z" transform="translate(-265.486 -218.935)" fill="#4b4b4b"/>
      </g>
      <g id="HTMLアイコン" transform="translate(-8995 2748)">
        <path id="パス_16" data-name="パス 16" d="M106.048,0H73.711L72.068,1.643,49.349,24.363l-1.643,1.643V75.172A15.17,15.17,0,0,0,62.859,90.325h43.188A15.17,15.17,0,0,0,121.2,75.172V15.153A15.169,15.169,0,0,0,106.048,0Zm9.541,75.171a9.541,9.541,0,0,1-9.541,9.542H62.859a9.542,9.542,0,0,1-9.544-9.542V28.331H68.084a7.953,7.953,0,0,0,7.952-7.951V5.611h30.011a9.541,9.541,0,0,1,9.541,9.543Z" transform="translate(-47.706)" fill="#4b4b4b"/>
        <path id="パス_17" data-name="パス 17" d="M117.724,253.19a1.539,1.539,0,0,0-1.564,1.673V259a.114.114,0,0,1-.128.129H111.27a.114.114,0,0,1-.128-.129v-4.137a1.578,1.578,0,1,0-3.151,0v11.492a1.527,1.527,0,0,0,1.564,1.672,1.554,1.554,0,0,0,1.587-1.672v-4.288a.114.114,0,0,1,.128-.129h4.762a.114.114,0,0,1,.128.129v4.288a1.578,1.578,0,1,0,3.151,0V254.863A1.544,1.544,0,0,0,117.724,253.19Z" transform="translate(-97.356 -208.523)" fill="#4b4b4b"/>
        <path id="パス_18" data-name="パス 18" d="M188.9,253.923h-8.342a1.415,1.415,0,1,0,0,2.809h2.466a.113.113,0,0,1,.128.128v10.1a1.579,1.579,0,1,0,3.153,0v-10.1a.113.113,0,0,1,.128-.128H188.9a1.415,1.415,0,1,0,0-2.809Z" transform="translate(-155.815 -209.127)" fill="#4b4b4b"/>
        <path id="パス_19" data-name="パス 19" d="M262.9,253.19c-.943,0-1.458.515-1.929,1.63l-3.045,7.032h-.086l-3.109-7.032c-.493-1.115-1.008-1.63-1.951-1.63a1.7,1.7,0,0,0-1.737,1.887v11.428a1.44,1.44,0,1,0,2.875,0v-7.033h.106L256.3,264.7c.448,1.03.813,1.33,1.542,1.33s1.094-.3,1.545-1.33l2.252-5.231h.106v7.033a1.44,1.44,0,1,0,2.875,0V255.077A1.684,1.684,0,0,0,262.9,253.19Z" transform="translate(-215.17 -208.523)" fill="#4b4b4b"/>
        <path id="パス_20" data-name="パス 20" d="M349.833,265.089h-5.188a.113.113,0,0,1-.128-.129v-10.1a1.578,1.578,0,1,0-3.151,0v11.449a1.5,1.5,0,0,0,1.586,1.587h6.881a1.415,1.415,0,1,0,0-2.808Z" transform="translate(-289.56 -208.523)" fill="#4b4b4b"/>
      </g>
    </g>
  </g>
</svg>
