<svg xmlns="http://www.w3.org/2000/svg" width="120" height="120" viewBox="0 0 120 120">
  <g id="グループ_96" data-name="グループ 96" transform="translate(8899 -3345)">
    <rect id="長方形_29" data-name="長方形 29" width="120" height="120" transform="translate(-8899 3345)" fill="rgba(178,178,178,0)"/>
    <g id="グループ_90" data-name="グループ 90" transform="translate(486.064 563.424)">
      <g id="JSアイコン" transform="translate(-9381 2783)">
        <path id="パス_40" data-name="パス 40" d="M136.794,0H87.416L84.907,2.157,50.215,31.983l-2.509,2.157V98.683c0,10.968,10.379,19.893,23.139,19.893h65.949c12.756,0,23.135-8.924,23.135-19.893V19.893C159.93,8.923,149.551,0,136.794,0Zm14.57,98.683c0,6.919-6.523,12.527-14.57,12.527H70.845c-8.05,0-14.573-5.608-14.573-12.527V37.192H78.824c6.7,0,12.143-4.673,12.143-10.438V7.366h45.827c8.047,0,14.57,5.608,14.57,12.527Z" transform="translate(-47.706)" fill="#4b4b4b"/>
        <path id="パス_41" data-name="パス 41" d="M190.8,251.968a2.44,2.44,0,0,0-2.671,2.453v11.766c0,2.642-1.354,3.617-3.4,3.617a4.6,4.6,0,0,1-2.231-.566,3.934,3.934,0,0,0-2.05-.692,2.154,2.154,0,0,0-2.378,1.95,2.275,2.275,0,0,0,.734,1.6c1.023,1.007,3.438,1.793,5.744,1.793,5.707,0,8.965-2.768,8.965-8.022v-11.45A2.454,2.454,0,0,0,190.8,251.968Z" transform="translate(-142.947 -193.614)" fill="#4b4b4b"/>
        <path id="パス_42" data-name="パス 42" d="M263.282,260.16,261.965,260c-2.893-.346-3.878-1.163-3.878-2.359,0-1.352,1.17-2.3,3.363-2.3a11.459,11.459,0,0,1,4.281.881,4.094,4.094,0,0,0,1.576.346,2.146,2.146,0,0,0,2.34-2.013,2.073,2.073,0,0,0-1.279-1.856,16.34,16.34,0,0,0-6.952-1.415c-5.38,0-8.818,2.61-8.818,6.542,0,3.776,2.78,5.82,7.866,6.418l1.317.157c2.964.346,3.841,1.132,3.841,2.39,0,1.48-1.426,2.518-4.059,2.518a11.529,11.529,0,0,1-5.342-1.384,3.552,3.552,0,0,0-1.576-.378,2.217,2.217,0,0,0-2.415,2.045,2.266,2.266,0,0,0,1.283,1.95,16.7,16.7,0,0,0,7.828,1.824c6.478,0,9.77-2.862,9.77-6.732S268.44,260.789,263.282,260.16Z" transform="translate(-197.134 -193.092)" fill="#4b4b4b"/>
      </g>
    </g>
  </g>
</svg>
