<svg xmlns="http://www.w3.org/2000/svg" width="120" height="120" viewBox="0 0 120 120">
  <g id="グループ_92" data-name="グループ 92" transform="translate(8899 -2734)">
    <path id="パス_44" data-name="パス 44" d="M0,0H120V120H0Z" transform="translate(-8899 2734)" fill="rgba(178,178,178,0)"/>
    <g id="グループ_86" data-name="グループ 86" transform="translate(196)">
      <g id="写真のフリー素材11" transform="translate(-9095 2734)">
        <path id="パス_31" data-name="パス 31" d="M78.01,78.01V179.726H179.726V78.01Zm92.573,92.573H87.153V87.153h83.429Z" transform="translate(-59.726 -59.726)" fill="#4b4b4b"/>
        <path id="パス_32" data-name="パス 32" d="M135.819,277.7h71.641a1.944,1.944,0,0,0,1.623-3.014l-22.231-33.683a4.858,4.858,0,0,0-8.117.009l-15.661,23.833-8.644-9.8a4.86,4.86,0,0,0-7.706.548l-12.531,19.094a1.944,1.944,0,0,0,1.625,3.01Z" transform="translate(-102.498 -182.848)" fill="#4b4b4b"/>
        <path id="パス_33" data-name="パス 33" d="M187.863,205.008a9.856,9.856,0,1,0-9.858-9.856A9.855,9.855,0,0,0,187.863,205.008Z" transform="translate(-136.285 -141.867)" fill="#4b4b4b"/>
        <path id="パス_34" data-name="パス 34" d="M101.716,9.144V0H0V101.716H9.144V9.144h92.573Z" fill="#4b4b4b"/>
      </g>
    </g>
  </g>
</svg>
