<svg xmlns="http://www.w3.org/2000/svg" width="120.008" height="120" viewBox="0 0 120.008 120">
  <g id="グループ_94" data-name="グループ 94" transform="translate(8899.008 -3036)">
    <rect id="長方形_31" data-name="長方形 31" width="120" height="120" transform="translate(-8899 3036)" fill="rgba(178,178,178,0)"/>
    <g id="グループ_88" data-name="グループ 88" transform="translate(1704.992 -200)">
      <g id="php" transform="translate(-10604 3252)">
        <path id="パス_22" data-name="パス 22" d="M119.508,149.072l-10.681-13.739V77.553a5.006,5.006,0,0,0-4.947-5.062H16.057a5.005,5.005,0,0,0-4.946,5.062v57.78L.43,149.072A2.054,2.054,0,0,0,0,150.333v6.081a3.992,3.992,0,0,0,3.947,4.038H115.99a3.992,3.992,0,0,0,3.947-4.038v-6.081A2.048,2.048,0,0,0,119.508,149.072ZM18.09,79.633h83.756v48.558H18.09ZM71.241,155.65H48.7v-6.106H71.241Z" transform="translate(0 -72.491)" fill="#4b4b4b"/>
        <path id="パス_23" data-name="パス 23" d="M159.932,167.431a.124.124,0,0,0-.073.023l-13.475,9.411a.138.138,0,0,0-.057.112v2.53a.129.129,0,0,0,.057.11l13.475,9.411a.113.113,0,0,0,.073.025.124.124,0,0,0,.06-.017.135.135,0,0,0,.07-.118v-4.032a.138.138,0,0,0-.057-.11l-9.356-6.535L160,171.708a.138.138,0,0,0,.057-.112v-4.03a.132.132,0,0,0-.07-.118A.105.105,0,0,0,159.932,167.431Z" transform="translate(-112.05 -144.677)" fill="#4b4b4b"/>
        <path id="パス_24" data-name="パス 24" d="M305.408,167.454a.129.129,0,0,0-.073-.023.108.108,0,0,0-.061.017.133.133,0,0,0-.069.118V171.6a.134.134,0,0,0,.057.11l9.356,6.533-9.356,6.535a.139.139,0,0,0-.057.112v4.03a.136.136,0,0,0,.069.118.128.128,0,0,0,.061.017.115.115,0,0,0,.073-.025l13.474-9.411a.124.124,0,0,0,.059-.11v-2.53a.133.133,0,0,0-.059-.112Z" transform="translate(-233.71 -144.677)" fill="#4b4b4b"/>
        <path id="パス_25" data-name="パス 25" d="M240.681,158.224h-3.767a.128.128,0,0,0-.122.089l-8.553,25.375a.134.134,0,0,0,.124.176h3.767a.13.13,0,0,0,.122-.091L240.8,158.4a.141.141,0,0,0-.016-.122A.132.132,0,0,0,240.681,158.224Z" transform="translate(-174.768 -137.677)" fill="#4b4b4b"/>
      </g>
    </g>
  </g>
</svg>
